{"accessors":[{"bufferView":0,"componentType":5126,"count":204155,"min":[81.66996002197266,122.47962188720703,-1679.3304443359376],"max":[1040.4759521484376,1196.41162109375,-536.4852294921875],"type":"VEC3","name":"BuildingMesh-00155.001_vertices#0_POSITION"},{"bufferView":0,"byteOffset":12,"componentType":5120,"count":204155,"type":"VEC4","name":"BuildingMesh-00155.001_vertices#0_TANGENT"},{"bufferView":0,"byteOffset":16,"componentType":5120,"count":204155,"type":"VEC4","name":"BuildingMesh-00155.001_vertices#0_NORMAL"},{"bufferView":0,"byteOffset":20,"componentType":5122,"count":204155,"type":"VEC2","name":"BuildingMesh-00155.001_vertices#0_TEXCOORD_0"},{"bufferView":0,"byteOffset":24,"componentType":5122,"count":204155,"type":"VEC2","name":"BuildingMesh-00155.001_vertices#0_TEXCOORD_1"},{"bufferView":0,"byteOffset":28,"componentType":5123,"count":204155,"type":"VEC4","name":"BuildingMesh-00155.001_vertices#0_COLOR_0"},{"bufferView":1,"componentType":5123,"count":204990,"type":"SCALAR","name":"BuildingMesh-00155.001_indices#3"}],"asset":{"generator":"Extended Khronos glTF Blender I/O v1.0.0","version":"2.0","extensions":{"ASOBO_asset_optimized":{"BoundingBoxMax":[1040.4759521484376,1196.41162109375,-536.4852294921875],"BoundingBoxMin":[81.66996002197266,122.47962188720703,-1679.3304443359376],"MajorVersion":4,"MinorVersion":2},"ASOBO_normal_map_convention":{"tangent_space_convention":"DirectX"}}},"bufferViews":[{"buffer":0,"byteLength":7349580,"byteStride":36,"byteOffset":52,"target":34962,"name":"BufferViewVertexND"},{"buffer":0,"byteLength":409980,"byteOffset":7349636,"target":34963,"name":"BufferViewIndex"}],"extensionsUsed":["ASOBO_normal_map_convention","ASOBO_tags","ASOBO_material_day_night_switch","MSFT_texture_dds","ASOBO_asset_optimized"],"extensionsRequired":["MSFT_texture_dds"],"materials":[{"name":"Material","pbrMetallicRoughness":{"metallicFactor":0.0,"roughnessFactor":0.5,"baseColorTexture":{"index":0}},"extensions":{"ASOBO_tags":{"tags":["Road"]}}}],"meshes":[{"primitives":[{"attributes":{"COLOR_0":5,"NORMAL":2,"POSITION":0,"TANGENT":1,"TEXCOORD_0":3,"TEXCOORD_1":4},"indices":6,"material":0,"mode":4,"extras":{"ASOBO_primitive":{"PrimitiveCount":21927,"VertexType":"VTX","VertexVersion":2}}},{"attributes":{"COLOR_0":5,"NORMAL":2,"POSITION":0,"TANGENT":1,"TEXCOORD_0":3,"TEXCOORD_1":4},"indices":6,"material":0,"mode":4,"extras":{"ASOBO_primitive":{"BaseVertexIndex":65529,"PrimitiveCount":21931,"StartIndex":65781,"VertexType":"VTX","VertexVersion":2}}},{"attributes":{"COLOR_0":5,"NORMAL":2,"POSITION":0,"TANGENT":1,"TEXCOORD_0":3,"TEXCOORD_1":4},"indices":6,"material":0,"mode":4,"extras":{"ASOBO_primitive":{"BaseVertexIndex":131058,"PrimitiveCount":21943,"StartIndex":131574,"VertexType":"VTX","VertexVersion":2}}},{"attributes":{"COLOR_0":5,"NORMAL":2,"POSITION":0,"TANGENT":1,"TEXCOORD_0":3,"TEXCOORD_1":4},"indices":6,"material":0,"mode":4,"extras":{"ASOBO_primitive":{"BaseVertexIndex":196586,"PrimitiveCount":2529,"StartIndex":197403,"VertexType":"VTX","VertexVersion":2}}}],"name":"BuildingMesh-00155.001"}],"nodes":[{"translation":[-70.30862426757813,-20.215858459472658,53.96410369873047],"rotation":[-0.47848132252693179,-0.4784892499446869,0.520627498626709,0.5206252932548523],"scale":[0.07611942291259766,0.07611870020627976,0.07611913233995438],"mesh":0,"name":"4escalado"}],"scene":0,"scenes":[{"nodes":[0],"name":"Scene","extras":{"glTF2ExportSettings":{"export_apply":1,"export_extras":1,"export_format":"GLTF_SEPARATE","export_generate_guid":1,"export_texture_dir":"../texture","export_xml":1,"export_xml_file":"torre_hercules","use_selection":1},"maps_models_importer_is_ref_matrix_valid":1,"maps_models_importer_ref_matrix":[0.000008808295206108597,-8.189607620239258,16.88514518737793,-16.904630661010743,14.062135696411133,0.000005115063231642125,-1.1703749895095824,1.1717441082000733,0.000009286718523071612,-0.000006647011559834937,-83.2509536743164,57.463279724121097,0,0,-0.0663403868675232,0.06641702353954315]}}],"textures":[{"extensions":{"MSFT_texture_dds":{"source":0}}}],"buffers":[{"byteLength":7759616,"uri":"torre_hercules.bin"}],"images":[{"uri":"TORRE_HERCULES_TEX.PNG.DDS","name":"torre_hercules_tex","extras":"ASOBO_image_converted_meta"}]}
